# xmcd
#
# Track frame offsets: 
#        183
#        12743
#        21318
#        35943
#        46718
#        56300
#        71353
#        81438
#        94850
#        104703
#        112595
#        125223
#        136123
#        147380
#        156725
#        167570
#
# Disc length: 2433 seconds
#
# Revision: 4
# Processed by: cddbd v1.5.2PL0 Copyright (c) Steve Scherf et al.
# Submitted via: ExactAudioCopyFreeDBPlugin 1.0
#
DISCID=e5097f10
DTITLE=Various Artist - Gold Country - CD 2
DYEAR=1995
DGENRE=Country
TTITLE0=Gram Parsons and Emmylou Harris - That´s All I Took
TTITLE1=Conway Twitty - Blue Is The Way I Feel
TTITLE2=Andy Forstman - My Tennessee Home
TTITLE3=Sandy Posey - Single Girl
TTITLE4=Ray Pillow - We´re Together Again
TTITLE5=Jeannie C. Riley - Harper Valley P.T.A.
TTITLE6=Faron Young - Hello Walls
TTITLE7=Patti Page - Tennessee Waltz
TTITLE8=Dave Dudley - Cowboy Boots
TTITLE9=Susan Rae - I´ve Got A Happy Heart
TTITLE10=Freddy Fender - Silver Wings
TTITLE11=Donna Fargo - All That´s Keeping Me Alive
TTITLE12=Patsy Cline - Just Out Of Reach
TTITLE13=George Jones - Worlds Worst Loser
TTITLE14=Dolly Parton - (It Wasn´t God Who Made) Honky Tonk Angels
TTITLE15=Willie Nelson - Face Of A Fighter
EXTD=YEAR: 1988
EXTT0=
EXTT1=
EXTT2=
EXTT3=
EXTT4=
EXTT5=
EXTT6=
EXTT7=
EXTT8=
EXTT9=
EXTT10=
EXTT11=
EXTT12=
EXTT13=
EXTT14=
EXTT15=
PLAYORDER=
